<svg xmlns="http://www.w3.org/2000/svg" viewBox="0 0 128 128" role="img" aria-labelledby="title desc">
  <title id="title">Conversation Cleaner for ChatGPT icon</title>
  <desc id="desc">A sidebar list with selected checkboxes and clean action marks.</desc>
  <defs>
    <linearGradient id="bg" x1="16" y1="8" x2="112" y2="120" gradientUnits="userSpaceOnUse">
      <stop offset="0" stop-color="#14213d"/>
      <stop offset="0.55" stop-color="#111827"/>
      <stop offset="1" stop-color="#0b1220"/>
    </linearGradient>
    <linearGradient id="accent" x1="22" y1="22" x2="108" y2="110" gradientUnits="userSpaceOnUse">
      <stop offset="0" stop-color="#58d6a4"/>
      <stop offset="1" stop-color="#13a875"/>
    </linearGradient>
    <filter id="soft-shadow" x="-20%" y="-20%" width="140%" height="140%">
      <feDropShadow dx="0" dy="8" stdDeviation="8" flood-color="#020617" flood-opacity="0.28"/>
    </filter>
  </defs>

  <rect width="128" height="128" rx="28" fill="url(#bg)"/>
  <rect x="12" y="12" width="104" height="104" rx="22" fill="none" stroke="#ffffff" stroke-opacity="0.08"/>

  <g filter="url(#soft-shadow)">
    <rect x="24" y="25" width="80" height="78" rx="16" fill="#f8fafc"/>
    <rect x="32" y="36" width="18" height="18" rx="5" fill="#e5e7eb"/>
    <rect x="58" y="39" width="31" height="5" rx="2.5" fill="#334155" opacity="0.86"/>
    <rect x="58" y="48" width="22" height="4" rx="2" fill="#64748b" opacity="0.62"/>

    <rect x="32" y="61" width="18" height="18" rx="5" fill="url(#accent)"/>
    <path d="M37 70.5l3.6 3.6L47 66.8" fill="none" stroke="#ffffff" stroke-width="3.2" stroke-linecap="round" stroke-linejoin="round"/>
    <rect x="58" y="64" width="35" height="5" rx="2.5" fill="#334155" opacity="0.9"/>
    <rect x="58" y="73" width="24" height="4" rx="2" fill="#64748b" opacity="0.62"/>

    <rect x="32" y="86" width="18" height="18" rx="5" fill="url(#accent)"/>
    <path d="M37 95.5l3.6 3.6L47 91.8" fill="none" stroke="#ffffff" stroke-width="3.2" stroke-linecap="round" stroke-linejoin="round"/>
    <rect x="58" y="89" width="29" height="5" rx="2.5" fill="#334155" opacity="0.86"/>
    <rect x="58" y="98" width="20" height="4" rx="2" fill="#64748b" opacity="0.62"/>
  </g>

  <circle cx="93" cy="91" r="18" fill="#ef4444"/>
  <path d="M86 84h14" fill="none" stroke="#ffffff" stroke-width="4" stroke-linecap="round"/>
  <path d="M89 89v11m8-11v11" fill="none" stroke="#ffffff" stroke-width="3.4" stroke-linecap="round"/>
  <path d="M88 84l2-4h6l2 4" fill="none" stroke="#ffffff" stroke-width="3" stroke-linecap="round" stroke-linejoin="round"/>
</svg>
